
<svg id="logo" data-name="Layer 1" xmlns="http://www.w3.org/2000/svg" viewBox="0 0 596.76 592.1"><defs></defs><g id="arrows"><path d="M1156.34,216.68c.47,0,8.21.58,16,9.5L660.39,738.09l-8.45-3.76-6.92,4L655.58,743l-1.41,1.41-14.78-6.57-6.92,4,16.89,7.51L648,750.76l-21.23-9.39-7,3.76L643,755.45l-1.29,1.29,4.57,4.58L647.6,760l10.33,23.23,4-6.92-9.39-21.24,1.41-1.41,7.51,16.9,4-6.93-6.57-14.9,1.4-1.41,4.7,10.56,4-6.92-3.76-8.45,511.67-511.78c8.92,7.74,9.51,15.48,9.51,16l19.94-50Zm18,6.92c-2.46-4.11-9.62-7.51-9.62-7.51L1193,204.94Z" transform="translate(-609.56 -191.15)"/><path d="M1206.32,745.13l-6.92-4-21.24,9.38-1.4-1.41,16.89-7.5-6.92-4-14.9,6.57-1.41-1.41,10.56-4.69-6.92-4-8.45,3.75L653.7,226.18c7.75-8.92,15.49-9.5,16-9.5l-50-20,19.94,50c0-.47.59-8.21,9.51-16L1161,742.66l-3.75,8.45,4,6.92,4.69-10.56,1.41,1.41-6.57,14.78,4,6.93,7.51-16.9,1.4,1.41-9.38,21.24,4,6.92,10.32-23.35,1.29,1.29,4.58-4.58-1.29-1.29ZM639,238.38l-11.15-28.27,18.66,18.65C642.44,231.23,639,238.38,639,238.38Z" transform="translate(-609.56 -191.15)"/></g><text class="cls-1" transform="translate(21 358.43) scale(0.99 1)">C</text><text class="cls-2" transform="translate(245.63 150.78) scale(0.99 1)">M</text><text class="cls-3" transform="translate(480.22 360.59) scale(0.99 1)">R</text><g id="pen"><path d="M873.31,713.65v17.17a3.21,3.21,0,1,0,6.4,0V712.25a3.76,3.76,0,0,0-.88-2.41l-31.64-36.71,58.16-106.61V635.9a12.86,12.86,0,0,0-8.72,12.53c0,7.23,5.36,13.05,11.92,13.05s11.92-5.87,11.92-13.05a12.89,12.89,0,0,0-8.76-12.53V566.56L970,673.18l-30.53,36.75a3.84,3.84,0,0,0-.84,2.36v18.58a3.21,3.21,0,1,0,6.4,0V713.65L976.24,676a3.78,3.78,0,0,0,.4-4.17l-65.33-119.8a3.17,3.17,0,0,0-5.48,0L840.47,671.82a3.77,3.77,0,0,0,.44,4.21Zm40.76-65.26a5.56,5.56,0,1,1-11.08,0,5.78,5.78,0,0,1,5.52-6A5.85,5.85,0,0,1,914.07,648.39Zm62.41,95.84a3.29,3.29,0,0,0-3.12-2.76H841.75a3.22,3.22,0,0,0-3.12,2.76l-4,21a3.81,3.81,0,0,0,.64,2.94,3.08,3.08,0,0,0,2.48,1.31H977.4a3.08,3.08,0,0,0,2.48-1.31,3.8,3.8,0,0,0,.64-2.94ZM841.67,762.49l2.72-14H970.8l2.72,14Z" transform="translate(-609.56 -191.15)"/></g></svg>